<svg width="88" height="53" viewBox="0 0 88 53" fill="none" xmlns="http://www.w3.org/2000/svg">
<mask id="mask0_65_89" style="mask-type:luminance" maskUnits="userSpaceOnUse" x="0" y="0" width="88" height="53">
<path d="M0.797302 52.38V1.45999H87.3649V52.38H0.797302Z" fill="white" stroke="white"/>
</mask>
<g mask="url(#mask0_65_89)">
<mask id="mask1_65_89" style="mask-type:luminance" maskUnits="userSpaceOnUse" x="0" y="0" width="88" height="53">
<path d="M0.879257 52.3952V1.44469H87.2829V52.3952H0.879257Z" fill="white" stroke="white"/>
</mask>
<g mask="url(#mask1_65_89)">
<mask id="mask2_65_89" style="mask-type:luminance" maskUnits="userSpaceOnUse" x="0" y="0" width="88" height="53">
<path d="M0.879257 52.3952V1.44469H87.2829V52.3952H0.879257Z" fill="white" stroke="white"/>
</mask>
<g mask="url(#mask2_65_89)">
<path d="M1.25331 28.1088H86.9089C87.0366 28.1088 87.139 28.153 87.203 28.2074C87.2659 28.2609 87.283 28.3138 87.283 28.3523C87.283 28.3907 87.2659 28.4436 87.203 28.4972C87.139 28.5516 87.0366 28.5958 86.9089 28.5958H1.25331C1.1256 28.5958 1.02321 28.5516 0.959244 28.4972C0.896338 28.4437 0.879272 28.3907 0.879272 28.3523C0.879272 28.3138 0.896338 28.2609 0.959245 28.2074C1.02321 28.153 1.1256 28.1088 1.25331 28.1088Z" fill="white" stroke="white"/>
<path d="M1.25331 31.5401H86.9089C87.0367 31.5401 87.1391 31.5843 87.203 31.6387C87.2659 31.6921 87.283 31.745 87.283 31.7835C87.283 31.8219 87.2659 31.8748 87.203 31.9284C87.139 31.9828 87.0366 32.027 86.9089 32.027H1.25331C1.1256 32.027 1.02321 31.9828 0.959244 31.9284C0.896338 31.8748 0.879272 31.8219 0.879272 31.7835C0.879272 31.745 0.896324 31.6921 0.959209 31.6387C1.02316 31.5843 1.12556 31.5401 1.25331 31.5401Z" fill="white" stroke="white"/>
<mask id="mask3_65_89" style="mask-type:luminance" maskUnits="userSpaceOnUse" x="0" y="36" width="88" height="17">
<path d="M1.09668 52.3953V36.9164H87.0655V52.3953H1.09668Z" fill="white" stroke="white"/>
</mask>
<g mask="url(#mask3_65_89)">
<mask id="mask4_65_89" style="mask-type:luminance" maskUnits="userSpaceOnUse" x="0" y="36" width="88" height="17">
<path d="M1.09668 52.3953V36.9164H87.0655V52.3953H1.09668Z" fill="white" stroke="white"/>
</mask>
<g mask="url(#mask4_65_89)">
<mask id="mask5_65_89" style="mask-type:luminance" maskUnits="userSpaceOnUse" x="0" y="36" width="88" height="17">
<path d="M1.09668 52.3953V36.9164H87.0655V52.3953H1.09668Z" fill="white" stroke="white"/>
</mask>
<g mask="url(#mask5_65_89)">
<mask id="mask6_65_89" style="mask-type:luminance" maskUnits="userSpaceOnUse" x="0" y="36" width="88" height="17">
<path d="M1.09668 52.3953V36.9164H87.0655V52.3953H1.09668Z" fill="white" stroke="white"/>
</mask>
<g mask="url(#mask6_65_89)">
<mask id="path-10-inside-1_65_89" fill="white">
<path d="M5.86625 52.6267H2.76023V52.3826C3.11268 52.3826 3.33738 52.2638 3.4343 52.0262C3.52828 51.7919 3.57528 51.5119 3.57528 51.1864V39.4924C3.57528 39.3297 3.50186 39.2483 3.355 39.2483C3.29625 39.2483 3.21548 39.2727 3.11268 39.3216L0.601425 40.2004V39.3216L5.73408 37.3441V38.0033C5.49911 38.1172 5.3126 38.2962 5.17455 38.5403C5.03357 38.7844 4.97777 39.0693 5.00714 39.3948V51.0888C5.00714 51.4305 5.05854 51.7316 5.16134 51.992C5.26414 52.2524 5.49911 52.3826 5.86625 52.3826V52.6267ZM8.24534 39.9807V38.0765H8.4436C8.56108 38.0765 8.68592 38.0521 8.81809 38.0033C8.95025 37.9544 9.09711 37.8974 9.25866 37.8323C9.50831 37.7347 9.80937 37.6321 10.1618 37.5248C10.5143 37.4206 10.9475 37.3685 11.4615 37.3685C12.0489 37.3685 12.5732 37.4613 13.0343 37.6469C13.4984 37.8357 13.8876 38.0879 14.2019 38.4037C14.5191 38.7227 14.7614 39.0937 14.9288 39.5169C15.0992 39.9401 15.1843 40.3795 15.1843 40.8352C15.1843 41.4699 15.011 42.0802 14.6644 42.6662C14.3208 43.252 13.7892 43.7241 13.0696 44.0821C14.0829 44.4077 14.8392 44.9284 15.3385 45.6446C15.8379 46.3607 16.0875 47.1745 16.0875 48.0859C16.0875 48.7695 15.973 49.3993 15.7439 49.9755C15.5177 50.5549 15.1873 51.0595 14.7526 51.4891C14.3208 51.9221 13.8039 52.2606 13.2018 52.5047C12.5997 52.7488 11.9241 52.8709 11.1752 52.8709C10.6171 52.8709 10.1545 52.8139 9.78734 52.6999C9.4202 52.586 9.1118 52.4803 8.86214 52.3826C8.7006 52.3175 8.55374 52.2638 8.42157 52.2214C8.2894 52.1824 8.15722 52.1629 8.02505 52.1629H7.8268V50.2831H8.04708C8.42892 50.869 8.90179 51.3117 9.46572 51.6112C10.0326 51.9139 10.6171 52.0653 11.2192 52.0653C11.7479 52.0653 12.2252 51.9627 12.6511 51.7576C13.0769 51.5558 13.4397 51.284 13.7392 50.9422C14.0418 50.6005 14.2694 50.2099 14.4222 49.7704C14.5779 49.3309 14.6557 48.8753 14.6557 48.4032C14.6557 47.915 14.5675 47.4382 14.3913 46.9726C14.2151 46.5104 13.9655 46.1003 13.6423 45.7422C13.3192 45.3842 12.9256 45.0994 12.4616 44.8877C12.0004 44.6762 11.4762 44.5704 10.8887 44.5704H9.87545V43.7648H10.9989C11.4542 43.7648 11.8536 43.6834 12.1973 43.5207C12.5439 43.3579 12.8347 43.1381 13.0696 42.8615C13.3046 42.5848 13.4808 42.2755 13.5983 41.9338C13.7158 41.592 13.7745 41.2339 13.7745 40.8596C13.7745 40.5178 13.7187 40.1842 13.6071 39.8587C13.4984 39.5331 13.3339 39.2434 13.1136 38.9895C12.8933 38.739 12.6246 38.5322 12.3074 38.3695C11.9931 38.2067 11.6304 38.1254 11.2192 38.1254C10.7199 38.1254 10.2206 38.28 9.72126 38.5892C9.22195 38.8985 8.8034 39.3623 8.46563 39.9807H8.24534ZM22.63 47.5976H17.6295V46.377H22.63V47.5976ZM36.3935 52.6267V52.3826H36.5036C36.6064 52.3826 36.7019 52.3338 36.7899 52.2362C36.8781 52.1385 36.9559 52.0246 37.0235 51.8943C37.0881 51.7641 37.1351 51.6209 37.1644 51.4647C37.1938 51.3117 37.2085 51.1701 37.2085 51.0398V38.1986L31.5251 52.8953L26.1281 38.9554V51.0398C26.1281 51.1701 26.1428 51.3117 26.1722 51.4647C26.2016 51.6209 26.25 51.7641 26.3175 51.8943C26.3823 52.0246 26.4585 52.1385 26.5467 52.2362C26.6348 52.3338 26.7376 52.3826 26.8551 52.3826H26.9653V52.6267H24.5642V52.3826H24.6743C24.777 52.3826 24.8725 52.3338 24.9606 52.2362C25.0487 52.1385 25.1222 52.0246 25.1809 51.8943C25.2397 51.7641 25.2837 51.6209 25.3131 51.4647C25.3424 51.3117 25.3571 51.1701 25.3571 51.0398V38.0277C25.3571 37.9137 25.3424 37.7835 25.3131 37.6371C25.2837 37.4906 25.2397 37.3523 25.1809 37.2221C25.1222 37.0918 25.0487 36.9812 24.9606 36.89C24.8725 36.8021 24.777 36.7582 24.6743 36.7582H24.5642V36.5141H26.811L31.9217 49.868L37.0323 36.5141H39.5215V36.7582H39.4113C39.2939 36.7582 39.191 36.8021 39.103 36.89C39.0148 36.9812 38.9385 37.0918 38.8739 37.2221C38.8063 37.3523 38.7579 37.4906 38.7285 37.6371C38.6991 37.7835 38.6844 37.9137 38.6844 38.0277V51.0398C38.6844 51.1701 38.6991 51.3117 38.7285 51.4647C38.7579 51.6209 38.8063 51.7641 38.8739 51.8943C38.9385 52.0246 39.0148 52.1385 39.103 52.2362C39.191 52.3338 39.2939 52.3826 39.4113 52.3826H39.5215V52.6267H36.3935ZM49.6106 52.6267H47.4739V51.3817L47.3637 51.5037C46.9965 51.9106 46.575 52.228 46.0993 52.4558C45.6205 52.6837 45.0434 52.7976 44.3678 52.7976C43.8538 52.7976 43.4133 52.7325 43.0461 52.6023C42.679 52.4721 42.3779 52.2882 42.143 52.0506C41.908 51.8163 41.7362 51.5444 41.6275 51.2352C41.5159 50.9259 41.46 50.6005 41.46 50.2587C41.46 49.7053 41.5966 49.217 41.8697 48.7939C42.1399 48.3707 42.532 47.9964 43.0461 47.6709C43.5601 47.3453 44.1886 47.0475 44.9317 46.7773C45.6719 46.5104 46.5193 46.2468 47.4739 45.9864C47.4445 45.3516 47.327 44.8389 47.1214 44.4483C46.9158 44.0577 46.6735 43.7517 46.3945 43.5304C46.1154 43.3123 45.8217 43.1659 45.5133 43.091C45.2049 43.0193 44.9405 42.9835 44.7203 42.9835C44.3385 42.9835 44.005 43.0486 43.7201 43.1788C43.4323 43.3091 43.1827 43.4767 42.9711 43.6817C42.7568 43.8836 42.5761 44.1017 42.4293 44.336C42.2824 44.5736 42.1649 44.7982 42.0768 45.0099H41.8786V43.2276C41.996 43.2115 42.1062 43.1707 42.209 43.1056C42.3118 43.0405 42.4366 42.9754 42.5835 42.9103C42.8038 42.8127 43.1048 42.6694 43.4866 42.4806C43.8685 42.2951 44.4045 42.2023 45.0948 42.2023C45.9024 42.2023 46.556 42.3162 47.0553 42.5441C47.5546 42.772 47.9408 43.073 48.214 43.4474C48.4842 43.8217 48.6633 44.2482 48.7515 44.7267C48.8396 45.2084 48.8836 45.7015 48.8836 46.2061V51.0398C48.8836 51.3654 48.9498 51.6697 49.0819 51.9529C49.2141 52.2394 49.3903 52.3826 49.6106 52.3826V52.6267ZM47.2315 50.6005L47.4739 50.3075V46.8165L47.2536 46.8653C46.9011 46.9629 46.4723 47.0931 45.967 47.2558C45.4589 47.4186 44.9772 47.6302 44.522 47.8906C44.0667 48.151 43.6775 48.4603 43.3545 48.8183C43.0314 49.1763 42.8699 49.5914 42.8699 50.0633C42.8699 50.5842 43.0608 51.0154 43.4426 51.3573C43.8244 51.699 44.3238 51.8699 44.9405 51.8699C45.4252 51.8699 45.8511 51.7527 46.2182 51.5183C46.5854 51.2808 46.9231 50.9747 47.2315 50.6005ZM60.3165 52.6267H59.0609C58.8112 52.6267 58.5792 52.5649 58.3647 52.4412C58.1533 52.3208 57.9668 52.1873 57.8052 52.0409C57.6143 51.8618 57.4381 51.6665 57.2766 51.4549L54.4348 47.4023L53.9723 47.915V51.0888C53.9723 51.2027 53.987 51.3329 54.0163 51.4793C54.0457 51.6258 54.0927 51.7674 54.1573 51.9041C54.2248 52.0441 54.3027 52.158 54.3908 52.2459C54.4789 52.337 54.5817 52.3826 54.6992 52.3826V52.6267H51.8355V52.3826C51.9383 52.3826 52.0337 52.337 52.1219 52.2459C52.21 52.158 52.2834 52.049 52.3421 51.9187C52.4009 51.7885 52.445 51.6502 52.4743 51.5037C52.5037 51.3573 52.5183 51.219 52.5183 51.0888V38.6624C52.5183 38.4346 52.4523 38.2067 52.3202 37.9788C52.1879 37.751 52.0117 37.6289 51.7914 37.6126V37.3685L53.9723 36.6117V46.792L57.5409 43.0812C57.6143 42.9998 57.6511 42.9022 57.6511 42.7882C57.6511 42.6743 57.5996 42.6174 57.4969 42.6174V42.3733H59.4794V42.6174C59.3913 42.6174 59.2988 42.6418 59.2018 42.6906C59.1079 42.7394 59.0168 42.7964 58.9287 42.8615C58.8259 42.9266 58.7231 43.0079 58.6203 43.1056L55.4922 46.3281L58.7525 50.8934C58.9434 51.1864 59.1343 51.4386 59.3252 51.6502C59.4868 51.8292 59.6586 51.9953 59.8406 52.1482C60.0257 52.3045 60.1843 52.3826 60.3165 52.3826V52.6267ZM66.4845 43.2032H64.0173V49.0868C64.0173 49.51 64.0232 49.8925 64.0349 50.2343C64.0526 50.576 64.0892 50.8608 64.1451 51.0888C64.2068 51.3166 64.2963 51.4907 64.4138 51.6112C64.5283 51.7348 64.6899 51.7967 64.8985 51.7967C65.2039 51.7967 65.4932 51.6339 65.7663 51.3085C66.0396 50.9829 66.2128 50.5923 66.2862 50.1366H66.4845V51.9187C66.3523 51.9187 66.2421 51.9675 66.1541 52.0653C66.0365 52.1792 65.8707 52.3012 65.6562 52.4314C65.4448 52.5616 65.1246 52.6267 64.6958 52.6267C64.17 52.6267 63.7603 52.5128 63.4666 52.285C63.1729 52.0571 62.9584 51.756 62.8233 51.3817C62.6941 51.0073 62.6177 50.5923 62.5943 50.1366C62.5737 49.6809 62.5634 49.217 62.5634 48.7451V43.2032H61.3298V42.3733H62.5634V40.2004C62.5634 39.9238 62.5297 39.6666 62.462 39.429C62.3974 39.1946 62.1816 39.0693 61.8144 39.0531V38.8088L64.0173 38.0277V42.3733H66.4845V43.2032ZM76.0845 52.6267H73.9478V51.3817L73.8376 51.5037C73.4704 51.9106 73.049 52.228 72.5732 52.4558C72.0945 52.6837 71.5173 52.7976 70.8418 52.7976C70.3277 52.7976 69.8872 52.7325 69.5201 52.6023C69.1529 52.4721 68.8518 52.2882 68.6169 52.0506C68.3819 51.8163 68.2101 51.5444 68.1014 51.2352C67.9898 50.9259 67.9339 50.6005 67.9339 50.2587C67.9339 49.7053 68.0705 49.217 68.3438 48.7939C68.6139 48.3707 69.0061 47.9964 69.5201 47.6709C70.034 47.3453 70.6625 47.0475 71.4057 46.7773C72.1458 46.5104 72.9932 46.2468 73.9478 45.9864C73.9184 45.3516 73.801 44.8389 73.5953 44.4483C73.3897 44.0577 73.1474 43.7517 72.8684 43.5304C72.5893 43.3123 72.2957 43.1659 71.9872 43.091C71.6788 43.0193 71.4145 42.9835 71.1942 42.9835C70.8124 42.9835 70.479 43.0486 70.1941 43.1788C69.9062 43.3091 69.6566 43.4767 69.4452 43.6817C69.2307 43.8836 69.0501 44.1017 68.9032 44.336C68.7564 44.5736 68.6389 44.7982 68.5508 45.0099H68.3525V43.2276C68.47 43.2115 68.5802 43.1707 68.6829 43.1056C68.7858 43.0405 68.9106 42.9754 69.0574 42.9103C69.2777 42.8127 69.5787 42.6694 69.9606 42.4806C70.3424 42.2951 70.8784 42.2023 71.5687 42.2023C72.3764 42.2023 73.0299 42.3162 73.5292 42.5441C74.0285 42.772 74.4148 43.073 74.6879 43.4474C74.9581 43.8217 75.1373 44.2482 75.2254 44.7267C75.3135 45.2084 75.3576 45.7015 75.3576 46.2061V51.0398C75.3576 51.3654 75.4237 51.6697 75.5558 51.9529C75.688 52.2394 75.8643 52.3826 76.0845 52.3826V52.6267ZM73.7054 50.6005L73.9478 50.3075V46.8165L73.7275 46.8653C73.375 46.9629 72.9462 47.0931 72.441 47.2558C71.9329 47.4186 71.4512 47.6302 70.996 47.8906C70.5407 48.151 70.1515 48.4603 69.8284 48.8183C69.5054 49.1763 69.3438 49.5914 69.3438 50.0633C69.3438 50.5842 69.5347 51.0154 69.9166 51.3573C70.2984 51.699 70.7977 51.8699 71.4145 51.8699C71.8991 51.8699 72.325 51.7527 72.6922 51.5183C73.0593 51.2808 73.3971 50.9747 73.7054 50.6005ZM82.9134 42.2023C83.7064 42.2023 84.3937 42.3489 84.9753 42.6418C85.5539 42.9347 86.0341 43.3254 86.4159 43.8136C86.7977 44.3019 87.0842 44.8585 87.2751 45.4835C87.466 46.1117 87.5614 46.7514 87.5614 47.4023C87.5614 48.0696 87.466 48.7239 87.2751 49.3651C87.0842 50.0096 86.7948 50.5874 86.4071 51.0985C86.0165 51.6128 85.5348 52.0246 84.962 52.3338C84.3893 52.643 83.7285 52.7976 82.9795 52.7976C82.4214 52.7976 81.9148 52.6707 81.4595 52.4168C81.0043 52.1662 80.6445 51.8618 80.3801 51.5037V52.6267H78.2213V52.3826C78.3241 52.3826 78.4196 52.3338 78.5077 52.2362C78.5958 52.1385 78.6736 52.0246 78.7412 51.8943C78.8058 51.7641 78.8528 51.6209 78.8822 51.4647C78.9115 51.3117 78.9262 51.1701 78.9262 51.0398V38.5892C78.9262 38.3125 78.8895 38.0521 78.8161 37.8079C78.7427 37.5638 78.5297 37.4336 78.1773 37.4174V37.1733L80.3801 36.4164V43.3986C80.7179 43.0242 81.1188 42.7313 81.5829 42.5197C82.044 42.3081 82.4876 42.2023 82.9134 42.2023ZM83.1337 51.9675C83.6623 51.935 84.1176 51.7919 84.4995 51.538C84.8813 51.2873 85.2015 50.9666 85.4599 50.576C85.7154 50.1854 85.9064 49.7411 86.0327 49.2431C86.156 48.7483 86.2177 48.2405 86.2177 47.7197C86.2177 47.1338 86.1443 46.5641 85.9974 46.0108C85.8505 45.4574 85.6347 44.961 85.3498 44.5216C85.062 44.0821 84.7051 43.7273 84.2792 43.4571C83.8533 43.1903 83.3687 43.0568 82.8253 43.0568C82.5169 43.0568 82.2158 43.1333 81.9221 43.2863C81.6284 43.4425 81.3685 43.6459 81.1423 43.8966C80.9132 44.1505 80.7296 44.4516 80.5916 44.7999C80.4506 45.1514 80.3801 45.5225 80.3801 45.9132V48.9404C80.3801 49.4124 80.4609 49.8355 80.6225 50.2098C80.784 50.5842 80.9969 50.9015 81.2612 51.162C81.5256 51.4224 81.8237 51.6209 82.1556 51.7576C82.4846 51.8976 82.8106 51.9675 83.1337 51.9675Z"/>
</mask>
<path d="M5.86625 52.6267H2.76023V52.3826C3.11268 52.3826 3.33738 52.2638 3.4343 52.0262C3.52828 51.7919 3.57528 51.5119 3.57528 51.1864V39.4924C3.57528 39.3297 3.50186 39.2483 3.355 39.2483C3.29625 39.2483 3.21548 39.2727 3.11268 39.3216L0.601425 40.2004V39.3216L5.73408 37.3441V38.0033C5.49911 38.1172 5.3126 38.2962 5.17455 38.5403C5.03357 38.7844 4.97777 39.0693 5.00714 39.3948V51.0888C5.00714 51.4305 5.05854 51.7316 5.16134 51.992C5.26414 52.2524 5.49911 52.3826 5.86625 52.3826V52.6267ZM8.24534 39.9807V38.0765H8.4436C8.56108 38.0765 8.68592 38.0521 8.81809 38.0033C8.95025 37.9544 9.09711 37.8974 9.25866 37.8323C9.50831 37.7347 9.80937 37.6321 10.1618 37.5248C10.5143 37.4206 10.9475 37.3685 11.4615 37.3685C12.0489 37.3685 12.5732 37.4613 13.0343 37.6469C13.4984 37.8357 13.8876 38.0879 14.2019 38.4037C14.5191 38.7227 14.7614 39.0937 14.9288 39.5169C15.0992 39.9401 15.1843 40.3795 15.1843 40.8352C15.1843 41.4699 15.011 42.0802 14.6644 42.6662C14.3208 43.252 13.7892 43.7241 13.0696 44.0821C14.0829 44.4077 14.8392 44.9284 15.3385 45.6446C15.8379 46.3607 16.0875 47.1745 16.0875 48.0859C16.0875 48.7695 15.973 49.3993 15.7439 49.9755C15.5177 50.5549 15.1873 51.0595 14.7526 51.4891C14.3208 51.9221 13.8039 52.2606 13.2018 52.5047C12.5997 52.7488 11.9241 52.8709 11.1752 52.8709C10.6171 52.8709 10.1545 52.8139 9.78734 52.6999C9.4202 52.586 9.1118 52.4803 8.86214 52.3826C8.7006 52.3175 8.55374 52.2638 8.42157 52.2214C8.2894 52.1824 8.15722 52.1629 8.02505 52.1629H7.8268V50.2831H8.04708C8.42892 50.869 8.90179 51.3117 9.46572 51.6112C10.0326 51.9139 10.6171 52.0653 11.2192 52.0653C11.7479 52.0653 12.2252 51.9627 12.6511 51.7576C13.0769 51.5558 13.4397 51.284 13.7392 50.9422C14.0418 50.6005 14.2694 50.2099 14.4222 49.7704C14.5779 49.3309 14.6557 48.8753 14.6557 48.4032C14.6557 47.915 14.5675 47.4382 14.3913 46.9726C14.2151 46.5104 13.9655 46.1003 13.6423 45.7422C13.3192 45.3842 12.9256 45.0994 12.4616 44.8877C12.0004 44.6762 11.4762 44.5704 10.8887 44.5704H9.87545V43.7648H10.9989C11.4542 43.7648 11.8536 43.6834 12.1973 43.5207C12.5439 43.3579 12.8347 43.1381 13.0696 42.8615C13.3046 42.5848 13.4808 42.2755 13.5983 41.9338C13.7158 41.592 13.7745 41.2339 13.7745 40.8596C13.7745 40.5178 13.7187 40.1842 13.6071 39.8587C13.4984 39.5331 13.3339 39.2434 13.1136 38.9895C12.8933 38.739 12.6246 38.5322 12.3074 38.3695C11.9931 38.2067 11.6304 38.1254 11.2192 38.1254C10.7199 38.1254 10.2206 38.28 9.72126 38.5892C9.22195 38.8985 8.8034 39.3623 8.46563 39.9807H8.24534ZM22.63 47.5976H17.6295V46.377H22.63V47.5976ZM36.3935 52.6267V52.3826H36.5036C36.6064 52.3826 36.7019 52.3338 36.7899 52.2362C36.8781 52.1385 36.9559 52.0246 37.0235 51.8943C37.0881 51.7641 37.1351 51.6209 37.1644 51.4647C37.1938 51.3117 37.2085 51.1701 37.2085 51.0398V38.1986L31.5251 52.8953L26.1281 38.9554V51.0398C26.1281 51.1701 26.1428 51.3117 26.1722 51.4647C26.2016 51.6209 26.25 51.7641 26.3175 51.8943C26.3823 52.0246 26.4585 52.1385 26.5467 52.2362C26.6348 52.3338 26.7376 52.3826 26.8551 52.3826H26.9653V52.6267H24.5642V52.3826H24.6743C24.777 52.3826 24.8725 52.3338 24.9606 52.2362C25.0487 52.1385 25.1222 52.0246 25.1809 51.8943C25.2397 51.7641 25.2837 51.6209 25.3131 51.4647C25.3424 51.3117 25.3571 51.1701 25.3571 51.0398V38.0277C25.3571 37.9137 25.3424 37.7835 25.3131 37.6371C25.2837 37.4906 25.2397 37.3523 25.1809 37.2221C25.1222 37.0918 25.0487 36.9812 24.9606 36.89C24.8725 36.8021 24.777 36.7582 24.6743 36.7582H24.5642V36.5141H26.811L31.9217 49.868L37.0323 36.5141H39.5215V36.7582H39.4113C39.2939 36.7582 39.191 36.8021 39.103 36.89C39.0148 36.9812 38.9385 37.0918 38.8739 37.2221C38.8063 37.3523 38.7579 37.4906 38.7285 37.6371C38.6991 37.7835 38.6844 37.9137 38.6844 38.0277V51.0398C38.6844 51.1701 38.6991 51.3117 38.7285 51.4647C38.7579 51.6209 38.8063 51.7641 38.8739 51.8943C38.9385 52.0246 39.0148 52.1385 39.103 52.2362C39.191 52.3338 39.2939 52.3826 39.4113 52.3826H39.5215V52.6267H36.3935ZM49.6106 52.6267H47.4739V51.3817L47.3637 51.5037C46.9965 51.9106 46.575 52.228 46.0993 52.4558C45.6205 52.6837 45.0434 52.7976 44.3678 52.7976C43.8538 52.7976 43.4133 52.7325 43.0461 52.6023C42.679 52.4721 42.3779 52.2882 42.143 52.0506C41.908 51.8163 41.7362 51.5444 41.6275 51.2352C41.5159 50.9259 41.46 50.6005 41.46 50.2587C41.46 49.7053 41.5966 49.217 41.8697 48.7939C42.1399 48.3707 42.532 47.9964 43.0461 47.6709C43.5601 47.3453 44.1886 47.0475 44.9317 46.7773C45.6719 46.5104 46.5193 46.2468 47.4739 45.9864C47.4445 45.3516 47.327 44.8389 47.1214 44.4483C46.9158 44.0577 46.6735 43.7517 46.3945 43.5304C46.1154 43.3123 45.8217 43.1659 45.5133 43.091C45.2049 43.0193 44.9405 42.9835 44.7203 42.9835C44.3385 42.9835 44.005 43.0486 43.7201 43.1788C43.4323 43.3091 43.1827 43.4767 42.9711 43.6817C42.7568 43.8836 42.5761 44.1017 42.4293 44.336C42.2824 44.5736 42.1649 44.7982 42.0768 45.0099H41.8786V43.2276C41.996 43.2115 42.1062 43.1707 42.209 43.1056C42.3118 43.0405 42.4366 42.9754 42.5835 42.9103C42.8038 42.8127 43.1048 42.6694 43.4866 42.4806C43.8685 42.2951 44.4045 42.2023 45.0948 42.2023C45.9024 42.2023 46.556 42.3162 47.0553 42.5441C47.5546 42.772 47.9408 43.073 48.214 43.4474C48.4842 43.8217 48.6633 44.2482 48.7515 44.7267C48.8396 45.2084 48.8836 45.7015 48.8836 46.2061V51.0398C48.8836 51.3654 48.9498 51.6697 49.0819 51.9529C49.2141 52.2394 49.3903 52.3826 49.6106 52.3826V52.6267ZM47.2315 50.6005L47.4739 50.3075V46.8165L47.2536 46.8653C46.9011 46.9629 46.4723 47.0931 45.967 47.2558C45.4589 47.4186 44.9772 47.6302 44.522 47.8906C44.0667 48.151 43.6775 48.4603 43.3545 48.8183C43.0314 49.1763 42.8699 49.5914 42.8699 50.0633C42.8699 50.5842 43.0608 51.0154 43.4426 51.3573C43.8244 51.699 44.3238 51.8699 44.9405 51.8699C45.4252 51.8699 45.8511 51.7527 46.2182 51.5183C46.5854 51.2808 46.9231 50.9747 47.2315 50.6005ZM60.3165 52.6267H59.0609C58.8112 52.6267 58.5792 52.5649 58.3647 52.4412C58.1533 52.3208 57.9668 52.1873 57.8052 52.0409C57.6143 51.8618 57.4381 51.6665 57.2766 51.4549L54.4348 47.4023L53.9723 47.915V51.0888C53.9723 51.2027 53.987 51.3329 54.0163 51.4793C54.0457 51.6258 54.0927 51.7674 54.1573 51.9041C54.2248 52.0441 54.3027 52.158 54.3908 52.2459C54.4789 52.337 54.5817 52.3826 54.6992 52.3826V52.6267H51.8355V52.3826C51.9383 52.3826 52.0337 52.337 52.1219 52.2459C52.21 52.158 52.2834 52.049 52.3421 51.9187C52.4009 51.7885 52.445 51.6502 52.4743 51.5037C52.5037 51.3573 52.5183 51.219 52.5183 51.0888V38.6624C52.5183 38.4346 52.4523 38.2067 52.3202 37.9788C52.1879 37.751 52.0117 37.6289 51.7914 37.6126V37.3685L53.9723 36.6117V46.792L57.5409 43.0812C57.6143 42.9998 57.6511 42.9022 57.6511 42.7882C57.6511 42.6743 57.5996 42.6174 57.4969 42.6174V42.3733H59.4794V42.6174C59.3913 42.6174 59.2988 42.6418 59.2018 42.6906C59.1079 42.7394 59.0168 42.7964 58.9287 42.8615C58.8259 42.9266 58.7231 43.0079 58.6203 43.1056L55.4922 46.3281L58.7525 50.8934C58.9434 51.1864 59.1343 51.4386 59.3252 51.6502C59.4868 51.8292 59.6586 51.9953 59.8406 52.1482C60.0257 52.3045 60.1843 52.3826 60.3165 52.3826V52.6267ZM66.4845 43.2032H64.0173V49.0868C64.0173 49.51 64.0232 49.8925 64.0349 50.2343C64.0526 50.576 64.0892 50.8608 64.1451 51.0888C64.2068 51.3166 64.2963 51.4907 64.4138 51.6112C64.5283 51.7348 64.6899 51.7967 64.8985 51.7967C65.2039 51.7967 65.4932 51.6339 65.7663 51.3085C66.0396 50.9829 66.2128 50.5923 66.2862 50.1366H66.4845V51.9187C66.3523 51.9187 66.2421 51.9675 66.1541 52.0653C66.0365 52.1792 65.8707 52.3012 65.6562 52.4314C65.4448 52.5616 65.1246 52.6267 64.6958 52.6267C64.17 52.6267 63.7603 52.5128 63.4666 52.285C63.1729 52.0571 62.9584 51.756 62.8233 51.3817C62.6941 51.0073 62.6177 50.5923 62.5943 50.1366C62.5737 49.6809 62.5634 49.217 62.5634 48.7451V43.2032H61.3298V42.3733H62.5634V40.2004C62.5634 39.9238 62.5297 39.6666 62.462 39.429C62.3974 39.1946 62.1816 39.0693 61.8144 39.0531V38.8088L64.0173 38.0277V42.3733H66.4845V43.2032ZM76.0845 52.6267H73.9478V51.3817L73.8376 51.5037C73.4704 51.9106 73.049 52.228 72.5732 52.4558C72.0945 52.6837 71.5173 52.7976 70.8418 52.7976C70.3277 52.7976 69.8872 52.7325 69.5201 52.6023C69.1529 52.4721 68.8518 52.2882 68.6169 52.0506C68.3819 51.8163 68.2101 51.5444 68.1014 51.2352C67.9898 50.9259 67.9339 50.6005 67.9339 50.2587C67.9339 49.7053 68.0705 49.217 68.3438 48.7939C68.6139 48.3707 69.0061 47.9964 69.5201 47.6709C70.034 47.3453 70.6625 47.0475 71.4057 46.7773C72.1458 46.5104 72.9932 46.2468 73.9478 45.9864C73.9184 45.3516 73.801 44.8389 73.5953 44.4483C73.3897 44.0577 73.1474 43.7517 72.8684 43.5304C72.5893 43.3123 72.2957 43.1659 71.9872 43.091C71.6788 43.0193 71.4145 42.9835 71.1942 42.9835C70.8124 42.9835 70.479 43.0486 70.1941 43.1788C69.9062 43.3091 69.6566 43.4767 69.4452 43.6817C69.2307 43.8836 69.0501 44.1017 68.9032 44.336C68.7564 44.5736 68.6389 44.7982 68.5508 45.0099H68.3525V43.2276C68.47 43.2115 68.5802 43.1707 68.6829 43.1056C68.7858 43.0405 68.9106 42.9754 69.0574 42.9103C69.2777 42.8127 69.5787 42.6694 69.9606 42.4806C70.3424 42.2951 70.8784 42.2023 71.5687 42.2023C72.3764 42.2023 73.0299 42.3162 73.5292 42.5441C74.0285 42.772 74.4148 43.073 74.6879 43.4474C74.9581 43.8217 75.1373 44.2482 75.2254 44.7267C75.3135 45.2084 75.3576 45.7015 75.3576 46.2061V51.0398C75.3576 51.3654 75.4237 51.6697 75.5558 51.9529C75.688 52.2394 75.8643 52.3826 76.0845 52.3826V52.6267ZM73.7054 50.6005L73.9478 50.3075V46.8165L73.7275 46.8653C73.375 46.9629 72.9462 47.0931 72.441 47.2558C71.9329 47.4186 71.4512 47.6302 70.996 47.8906C70.5407 48.151 70.1515 48.4603 69.8284 48.8183C69.5054 49.1763 69.3438 49.5914 69.3438 50.0633C69.3438 50.5842 69.5347 51.0154 69.9166 51.3573C70.2984 51.699 70.7977 51.8699 71.4145 51.8699C71.8991 51.8699 72.325 51.7527 72.6922 51.5183C73.0593 51.2808 73.3971 50.9747 73.7054 50.6005ZM82.9134 42.2023C83.7064 42.2023 84.3937 42.3489 84.9753 42.6418C85.5539 42.9347 86.0341 43.3254 86.4159 43.8136C86.7977 44.3019 87.0842 44.8585 87.2751 45.4835C87.466 46.1117 87.5614 46.7514 87.5614 47.4023C87.5614 48.0696 87.466 48.7239 87.2751 49.3651C87.0842 50.0096 86.7948 50.5874 86.4071 51.0985C86.0165 51.6128 85.5348 52.0246 84.962 52.3338C84.3893 52.643 83.7285 52.7976 82.9795 52.7976C82.4214 52.7976 81.9148 52.6707 81.4595 52.4168C81.0043 52.1662 80.6445 51.8618 80.3801 51.5037V52.6267H78.2213V52.3826C78.3241 52.3826 78.4196 52.3338 78.5077 52.2362C78.5958 52.1385 78.6736 52.0246 78.7412 51.8943C78.8058 51.7641 78.8528 51.6209 78.8822 51.4647C78.9115 51.3117 78.9262 51.1701 78.9262 51.0398V38.5892C78.9262 38.3125 78.8895 38.0521 78.8161 37.8079C78.7427 37.5638 78.5297 37.4336 78.1773 37.4174V37.1733L80.3801 36.4164V43.3986C80.7179 43.0242 81.1188 42.7313 81.5829 42.5197C82.044 42.3081 82.4876 42.2023 82.9134 42.2023ZM83.1337 51.9675C83.6623 51.935 84.1176 51.7919 84.4995 51.538C84.8813 51.2873 85.2015 50.9666 85.4599 50.576C85.7154 50.1854 85.9064 49.7411 86.0327 49.2431C86.156 48.7483 86.2177 48.2405 86.2177 47.7197C86.2177 47.1338 86.1443 46.5641 85.9974 46.0108C85.8505 45.4574 85.6347 44.961 85.3498 44.5216C85.062 44.0821 84.7051 43.7273 84.2792 43.4571C83.8533 43.1903 83.3687 43.0568 82.8253 43.0568C82.5169 43.0568 82.2158 43.1333 81.9221 43.2863C81.6284 43.4425 81.3685 43.6459 81.1423 43.8966C80.9132 44.1505 80.7296 44.4516 80.5916 44.7999C80.4506 45.1514 80.3801 45.5225 80.3801 45.9132V48.9404C80.3801 49.4124 80.4609 49.8355 80.6225 50.2098C80.784 50.5842 80.9969 50.9015 81.2612 51.162C81.5256 51.4224 81.8237 51.6209 82.1556 51.7576C82.4846 51.8976 82.8106 51.9675 83.1337 51.9675Z" fill="white" stroke="white" stroke-width="2" mask="url(#path-10-inside-1_65_89)"/>
</g>
</g>
</g>
</g>
<mask id="mask7_65_89" style="mask-type:luminance" maskUnits="userSpaceOnUse" x="29" y="0" width="30" height="24">
<path d="M30.1962 23.2185V1.44469H57.9659V23.2185H30.1962Z" fill="white" stroke="white"/>
</mask>
<g mask="url(#mask7_65_89)">
<mask id="mask8_65_89" style="mask-type:luminance" maskUnits="userSpaceOnUse" x="29" y="0" width="30" height="24">
<path d="M30.1962 23.2185V1.44469H57.9659V23.2185H30.1962Z" fill="white" stroke="white"/>
</mask>
<g mask="url(#mask8_65_89)">
<path d="M42.6799 21.8913C42.6737 21.8766 42.6613 21.8392 42.6613 21.7838H43.1613H43.6613V6.87002C43.6613 5.30384 42.7077 4.14051 41.3149 3.39517C39.9321 2.65512 38.065 2.29013 36.0494 2.29013C34.0781 2.29013 32.2724 2.80647 30.9113 3.67194L30.6796 3.81928V4.09387V21.4557V22.4136L31.4655 21.8659C34.5464 19.7185 37.3905 19.6416 39.4559 20.1632C40.4953 20.4256 41.3391 20.8405 41.9153 21.2235C42.2044 21.4157 42.4166 21.5936 42.55 21.7319C42.6174 21.8017 42.6556 21.852 42.6736 21.8808C42.6763 21.8851 42.6784 21.8886 42.6799 21.8913ZM42.6799 21.8913C42.6818 21.8958 42.6831 21.8981 42.6833 21.8982C42.6835 21.8983 42.6825 21.896 42.6799 21.8913ZM45.5776 21.8912C45.5791 21.8885 45.5811 21.885 45.5838 21.8807C45.6019 21.8519 45.64 21.8015 45.7073 21.7318C45.8406 21.5935 46.0528 21.4156 46.3417 21.2235C46.9175 20.8404 47.7608 20.4256 48.7999 20.1631C50.8643 19.6417 53.7074 19.7185 56.7885 21.8659L57.5744 22.4136V21.4557V4.09418V3.81957L57.3426 3.67224C55.9813 2.80678 54.1755 2.29045 52.2042 2.29045C50.1907 2.29045 48.3245 2.65547 46.9421 3.39552C45.5498 4.14086 44.5961 5.30417 44.5961 6.87034V21.7838H45.0961H45.5961C45.5961 21.8392 45.5837 21.8766 45.5776 21.8912ZM45.5776 21.8912C45.575 21.8958 45.5741 21.898 45.5742 21.8981C45.5743 21.8982 45.5756 21.8958 45.5776 21.8912ZM43.8598 3.91182L44.2169 4.2904L44.5809 3.91843C44.7181 3.77826 45.1828 3.41972 45.9475 3.01587C46.7 2.61843 47.7149 2.19223 48.9342 1.89944C51.3044 1.33033 54.4501 1.26363 57.966 2.89933V2.90252V2.90615V2.90981V2.91348V2.91717V2.92088V2.92461V2.92836V2.93213V2.93592V2.93972V2.94355V2.94739V2.95126V2.95514V2.95904V2.96296V2.9669V2.97086V2.97484V2.97884V2.98285V2.98689V2.99094V2.99501V2.9991V3.00321V3.00734V3.01149V3.01566V3.01984V3.02404V3.02827V3.03251V3.03677V3.04105V3.04534V3.04966V3.05399V3.05835V3.06272V3.06711V3.07152V3.07595V3.08039V3.08486V3.08934V3.09384V3.09836V3.1029V3.10745V3.11203V3.11662V3.12123V3.12586V3.13051V3.13517V3.13986V3.14456V3.14928V3.15402V3.15877V3.16355V3.16834V3.17315V3.17798V3.18283V3.18769V3.19258V3.19748V3.2024V3.20733V3.21229V3.21726V3.22225V3.22726V3.23229V3.23733V3.24239V3.24747V3.25257V3.25769V3.26282V3.26797V3.27314V3.27833V3.28353V3.28875V3.29399V3.29925V3.30452V3.30981V3.31512V3.32045V3.32579V3.33116V3.33654V3.34193V3.34735V3.35278V3.35823V3.36369V3.36918V3.37468V3.3802V3.38573V3.39129V3.39686V3.40244V3.40805V3.41367V3.41931V3.42496V3.43064V3.43633V3.44204V3.44776V3.4535V3.45926V3.46504V3.47083V3.47664V3.48246V3.48831V3.49417V3.50004V3.50594V3.51185V3.51778V3.52372V3.52968V3.53566V3.54166V3.54767V3.5537V3.55974V3.5658V3.57188V3.57798V3.58409V3.59022V3.59636V3.60252V3.6087V3.6149V3.62111V3.62733V3.63358V3.63984V3.64612V3.65241V3.65872V3.66504V3.67139V3.67775V3.68412V3.69051V3.69692V3.70334V3.70978V3.71624V3.72271V3.7292V3.73571V3.74223V3.74876V3.75532V3.76189V3.76847V3.77507V3.78169V3.78832V3.79497V3.80164V3.80832V3.81501V3.82173V3.82846V3.8352V3.84196V3.84874V3.85553V3.86234V3.86916V3.876V3.88286V3.88973V3.89661V3.90352V3.91043V3.91737V3.92432V3.93128V3.93826V3.94526V3.95227V3.9593V3.96634V3.9734V3.98047V3.98756V3.99466V4.00178V4.00892V4.01607V4.02323V4.03041V4.03761V4.04482V4.05205V4.05929V4.06655V4.07382V4.08111V4.08841V4.09573V4.10306V4.11041V4.11777V4.12515V4.13254V4.13995V4.14737V4.15481V4.16226V4.16973V4.17721V4.18471V4.19223V4.19975V4.2073V4.21485V4.22242V4.23001V4.23761V4.24523V4.25286V4.26051V4.26817V4.27584V4.28353V4.29124V4.29896V4.30669V4.31444V4.3222V4.32998V4.33777V4.34558V4.3534V4.36123V4.36908V4.37695V4.38483V4.39272V4.40063V4.40855V4.41648V4.42443V4.4324V4.44038V4.44837V4.45638V4.4644V4.47243V4.48048V4.48855V4.49663V4.50472V4.51282V4.52094V4.52908V4.53723V4.54539V4.55357V4.56176V4.56996V4.57818V4.58641V4.59466V4.60292V4.61119V4.61948V4.62778V4.63609V4.64442V4.65277V4.66112V4.66949V4.67788V4.68627V4.69469V4.70311V4.71155V4.72V4.72847V4.73695V4.74544V4.75394V4.76246V4.771V4.77954V4.7881V4.79668V4.80526V4.81386V4.82248V4.8311V4.83975V4.8484V4.85707V4.86575V4.87444V4.88315V4.89187V4.9006V4.90934V4.9181V4.92688V4.93566V4.94446V4.95327V4.9621V4.97094V4.97979V4.98865V4.99753V5.00642V5.01532V5.02423V5.03316V5.0421V5.05106V5.06003V5.06901V5.078V5.087V5.09602V5.10505V5.1141V5.12315V5.13222V5.1413V5.1504V5.1595V5.16862V5.17776V5.1869V5.19606V5.20523V5.21441V5.2236V5.23281V5.24203V5.25126V22.5585H46.5516H46.3524L46.2078 22.6953C46.0909 22.8061 45.8388 22.9431 45.4393 23.0504C45.0524 23.1544 44.572 23.2185 44.0457 23.2185C43.5181 23.2185 43.0379 23.1544 42.6516 23.0505C42.2528 22.9432 42.0019 22.8063 41.8857 22.696L41.741 22.5585H41.5413H30.1962V5.25126V5.24203V5.23281V5.2236V5.21441V5.20523V5.19606V5.1869V5.17776V5.16862V5.1595V5.1504V5.1413V5.13222V5.12315V5.1141V5.10505V5.09602V5.087V5.078V5.06901V5.06003V5.05106V5.0421V5.03316V5.02423V5.01532V5.00642V4.99753V4.98865V4.97979V4.97094V4.9621V4.95327V4.94446V4.93566V4.92688V4.9181V4.90934V4.9006V4.89187V4.88315V4.87444V4.86575V4.85707V4.8484V4.83975V4.8311V4.82248V4.81386V4.80526V4.79668V4.7881V4.77954V4.771V4.76246V4.75394V4.74544V4.73695V4.72847V4.72V4.71155V4.70311V4.69469V4.68627V4.67788V4.66949V4.66112V4.65277V4.64442V4.63609V4.62778V4.61948V4.61119V4.60292V4.59466V4.58641V4.57818V4.56996V4.56176V4.55357V4.54539V4.53723V4.52908V4.52094V4.51282V4.50472V4.49663V4.48855V4.48048V4.47243V4.4644V4.45638V4.44837V4.44038V4.4324V4.42443V4.41648V4.40855V4.40063V4.39272V4.38483V4.37695V4.36908V4.36123V4.3534V4.34558V4.33777V4.32998V4.3222V4.31444V4.30669V4.29896V4.29124V4.28353V4.27584V4.26817V4.26051V4.25286V4.24523V4.23761V4.23001V4.22242V4.21485V4.2073V4.19975V4.19223V4.18471V4.17721V4.16973V4.16226V4.15481V4.14737V4.13995V4.13254V4.12515V4.11777V4.11041V4.10306V4.09573V4.08841V4.08111V4.07382V4.06655V4.05929V4.05205V4.04482V4.03761V4.03041V4.02323V4.01607V4.00892V4.00178V3.99466V3.98756V3.98047V3.9734V3.96634V3.9593V3.95227V3.94526V3.93826V3.93128V3.92432V3.91737V3.91043V3.90352V3.89661V3.88973V3.88286V3.876V3.86916V3.86234V3.85553V3.84874V3.84196V3.8352V3.82846V3.82173V3.81501V3.80832V3.80164V3.79497V3.78832V3.78169V3.77507V3.76847V3.76189V3.75532V3.74876V3.74223V3.73571V3.7292V3.72271V3.71624V3.70978V3.70334V3.69692V3.69051V3.68412V3.67775V3.67139V3.66504V3.65872V3.65241V3.64612V3.63984V3.63358V3.62733V3.62111V3.6149V3.6087V3.60252V3.59636V3.59022V3.58409V3.57798V3.57188V3.5658V3.55974V3.5537V3.54767V3.54166V3.53566V3.52968V3.52372V3.51778V3.51185V3.50594V3.50004V3.49417V3.48831V3.48246V3.47664V3.47083V3.46504V3.45926V3.4535V3.44776V3.44204V3.43633V3.43064V3.42496V3.41931V3.41367V3.40805V3.40244V3.39686V3.39129V3.38573V3.3802V3.37468V3.36918V3.36369V3.35823V3.35278V3.34735V3.34193V3.33654V3.33116V3.32579V3.32045V3.31512V3.30981V3.30452V3.29925V3.29399V3.28875V3.28353V3.27833V3.27314V3.26797V3.26282V3.25769V3.25257V3.24747V3.24239V3.23733V3.23229V3.22726V3.22225V3.21726V3.21229V3.20733V3.2024V3.19748V3.19258V3.18769V3.18283V3.17798V3.17315V3.16834V3.16355V3.15877V3.15402V3.14928V3.14456V3.13986V3.13517V3.13051V3.12586V3.12123V3.11662V3.11203V3.10745V3.1029V3.09836V3.09384V3.08934V3.08486V3.08039V3.07595V3.07152V3.06711V3.06272V3.05835V3.05399V3.04966V3.04534V3.04105V3.03677V3.03251V3.02827V3.02404V3.01984V3.01566V3.01149V3.00734V3.00321V2.9991V2.99501V2.99094V2.98689V2.98285V2.97884V2.97484V2.97086V2.9669V2.96296V2.95904V2.95514V2.95126V2.94739V2.94355V2.93972V2.93592V2.93213V2.92836V2.92461V2.92088V2.91717V2.91348V2.90981V2.90615V2.90252V2.90209C33.8754 1.22048 37.0401 1.22519 39.4067 1.76857C41.8565 2.33106 43.4407 3.46753 43.8598 3.91182Z" fill="white" stroke="white"/>
</g>
</g>
</g>
</g>
</g>
</svg>
